<svg width="25" height="24" viewBox="0 0 25 24" fill="none" xmlns="http://www.w3.org/2000/svg">
<path d="M24.1379 12.2832C24.1379 5.88174 18.7847 0.695557 12.1871 0.695557C5.58497 0.695557 0.236206 5.88174 0.236206 12.2832C0.236206 18.0654 4.605 22.8598 10.3198 23.7281V15.6335H7.28498V12.2839H10.3198V9.72956C10.3198 6.82614 12.1012 5.2227 14.832 5.2227C16.1398 5.2227 17.5089 5.44866 17.5089 5.44866V8.29994H15.9994C14.5175 8.29994 14.0544 9.19436 14.0544 10.1105V12.2832H17.3685L16.836 15.6327H14.0544V23.7274C19.7647 22.8591 24.1379 18.0647 24.1379 12.2825V12.2832Z" fill="#193FF6"/>
</svg>
