<svg width="24" height="24" viewBox="0 0 24 24" fill="none" xmlns="http://www.w3.org/2000/svg">
<path d="M13.35 5.25999L14.62 7.84999C14.7278 8.06805 14.8869 8.25663 15.0838 8.39948C15.2806 8.54233 15.5093 8.63517 15.75 8.66999L18.6 9.07999C18.8772 9.12024 19.1376 9.23728 19.3516 9.41787C19.5657 9.59846 19.725 9.83538 19.8113 10.1018C19.8977 10.3682 19.9078 10.6535 19.8404 10.9254C19.773 11.1972 19.6308 11.4448 19.43 11.64L17.37 13.64C17.1903 13.8126 17.0568 14.0276 16.9817 14.2652C16.9066 14.5028 16.8922 14.7554 16.94 15L17.42 17.84C17.4662 18.1149 17.4349 18.3972 17.3295 18.6553C17.2242 18.9134 17.049 19.137 16.8237 19.3011C16.5983 19.4652 16.3317 19.5632 16.0537 19.5842C15.7758 19.6052 15.4975 19.5484 15.25 19.42L12.7 18.06C12.484 17.947 12.2438 17.8879 12 17.8879C11.7562 17.8879 11.516 17.947 11.3 18.06L8.75001 19.4C8.50257 19.5284 8.22425 19.5852 7.94629 19.5642C7.66833 19.5432 7.40171 19.4452 7.17636 19.2811C6.95101 19.117 6.77584 18.8934 6.6705 18.6353C6.56517 18.3772 6.53383 18.0949 6.58001 17.82L7.06001 15C7.10256 14.76 7.08561 14.5133 7.01065 14.2814C6.93568 14.0496 6.80498 13.8396 6.63001 13.67L4.57001 11.67C4.36015 11.4761 4.21003 11.2264 4.13729 10.9501C4.06455 10.6738 4.07223 10.3825 4.15942 10.1104C4.2466 9.83835 4.40968 9.59684 4.62945 9.4143C4.84923 9.23175 5.11656 9.11577 5.40001 9.07999L8.25001 8.66999C8.49073 8.63517 8.71937 8.54233 8.91623 8.39948C9.11309 8.25663 9.27225 8.06805 9.38001 7.84999L10.65 5.25999C10.7755 5.00948 10.9683 4.79883 11.2067 4.65163C11.4451 4.50442 11.7198 4.42645 12 4.42645C12.2802 4.42645 12.5549 4.50442 12.7933 4.65163C13.0317 4.79883 13.2245 5.00948 13.35 5.25999Z" fill="#FFC700" stroke="#FFC700" stroke-width="1.5" stroke-miterlimit="10"/>
</svg>
