<svg xmlns="http://www.w3.org/2000/svg" version="1.0" width="806.000000pt" height="644.000000pt" viewBox="0 0 806.000000 644.000000" preserveAspectRatio="xMidYMid meet">

<g transform="translate(0.000000,644.000000) scale(0.100000,-0.100000)" fill="#5c3d2e" stroke="none">
<path d="M6957 6380 c-251 -80 -445 -390 -621 -995 -66 -229 -259 -1004 -347 -1395 -50 -225 -69 -313 -69 -326 0 -13 23 -15 141 -13 77 0 152 4 167 8 25 7 28 15 72 217 99 446 139 537 310 698 115 108 227 151 281 107 39 -31 31 -111 -39 -381 -81 -315 -95 -394 -89 -504 4 -75 10 -98 38 -154 56 -107 158 -162 303 -162 157 0 312 72 463 213 226 212 444 600 446 796 1 58 -2 66 -27 87 -15 13 -38 24 -50 24 -27 0 -32 -11 -71 -148 -33 -121 -88 -246 -155 -358 -157 -262 -331 -420 -475 -431 -55 -5 -64 -3 -92 21 -17 15 -37 43 -44 63 -25 77 5 253 101 600 65 229 84 332 76 406 -13 125 -78 189 -199 195 -172 10 -334 -68 -526 -253 -52 -49 -92 -83 -89 -75 3 8 16 54 29 103 l24 87 95 57 c299 178 513 408 660 709 195 399 177 720 -45 803 -72 27 -187 27 -268 1z m221 -172 c78 -84 39 -342 -93 -616 -79 -164 -163 -288 -269 -396 -71 -73 -215 -186 -237 -186 -17 0 106 437 191 679 97 278 148 386 219 465 71 78 146 99 189 54z" fill="#ff6000"/>
<path d="M4848 6347 c-133 -50 -215 -143 -254 -292 -15 -56 -19 -301 -5 -309 5 -3 12 20 16 52 10 90 42 206 71 264 78 154 170 198 315 150 30 -10 64 -16 77 -14 53 8 52 96 -1 136 -35 26 -162 34 -219 13z" fill="#ff6000"/>
<path d="M3100 6274 c-198 -129 -426 -182 -1080 -249 -775 -81 -1198 -198 -1537 -426 -176 -119 -348 -333 -387 -480 -26 -101 16 -184 88 -177 28 3 32 9 66 99 90 239 307 425 633 543 288 104 792 163 1582 186 376 11 422 17 525 68 76 38 156 121 194 201 54 114 47 272 -12 271 -9 0 -42 -17 -72 -36z" fill="#ff6000"/>
<path d="M3535 6153 c-67 -17 -79 -90 -22 -128 14 -9 65 -27 114 -40 111 -30 184 -61 263 -115 80 -55 256 -224 322 -311 29 -38 55 -64 57 -58 6 20 -87 190 -154 279 -114 154 -277 290 -413 345 -60 24 -134 37 -167 28z" fill="#ff6000"/>
<path d="M5884 6132 c-6 -4 -21 -36 -33 -72 -48 -147 -159 -253 -378 -364 -162 -81 -351 -137 -567 -167 -83 -11 -153 -22 -155 -24 -23 -23 413 -28 524 -7 266 52 475 144 603 265 126 122 158 278 71 351 -32 27 -46 31 -65 18z" fill="#ff6000"/>
<path d="M4913 6000 c-41 -25 -84 -84 -135 -185 -37 -73 -78 -176 -78 -196 0 -5 33 24 73 65 58 59 91 82 168 120 111 54 129 70 136 124 5 34 1 45 -20 66 -33 33 -97 35 -144 6z" fill="#ff6000"/>
<path d="M3432 5564 c-75 -28 -98 -104 -39 -132 25 -12 39 -10 134 19 103 31 111 32 232 26 69 -3 164 -13 210 -22 46 -9 86 -14 89 -11 10 11 -153 78 -248 103 -125 32 -315 40 -378 17z" fill="#ff6000"/>
<path d="M1866 5489 c-273 -14 -480 -45 -606 -91 -139 -52 -292 -171 -363 -284 -46 -74 -101 -207 -147 -356 -56 -179 -53 -174 -97 -188 -122 -40 -238 -126 -249 -186 -16 -86 20 -110 99 -66 50 29 127 56 135 48 8 -9 -202 -789 -269 -999 -54 -167 -77 -197 -191 -254 -86 -42 -126 -79 -115 -107 17 -45 142 -72 250 -55 192 31 337 133 441 309 87 147 149 317 252 690 31 113 71 258 89 323 18 65 35 120 39 124 9 10 254 22 458 22 168 1 188 3 196 19 15 27 64 243 58 250 -11 11 -487 -9 -590 -24 l-39 -6 7 34 c3 19 24 92 46 164 85 274 125 310 364 334 99 10 588 30 738 30 l76 0 16 48 c18 56 56 206 56 221 0 13 -412 13 -654 0z" fill="#ff6000"/>
<path d="M5448 5295 c-186 -47 -300 -170 -343 -370 -77 -352 -496 -993 -804 -1225 -188 -143 -412 -201 -551 -144 -112 47 -180 194 -180 391 l0 91 53 12 c125 30 339 127 437 199 181 132 273 280 273 437 -1 170 -155 266 -379 235 -227 -32 -420 -154 -554 -351 -155 -229 -224 -551 -173 -814 l17 -89 -75 -71 c-89 -83 -151 -118 -215 -118 -88 0 -121 53 -110 173 8 92 43 200 133 409 114 268 127 309 127 420 1 87 -1 99 -29 148 -52 95 -140 137 -349 167 -65 9 -140 24 -165 34 -46 16 -46 17 -52 71 -15 141 -71 200 -189 200 -41 0 -55 -5 -86 -32 -43 -38 -56 -67 -55 -129 0 -66 22 -111 87 -179 l56 -59 -12 -53 c-32 -134 -137 -364 -226 -494 -72 -105 -122 -160 -198 -216 l-68 -52 5 -43 c5 -50 30 -83 62 -83 51 0 200 141 310 295 79 109 212 370 251 494 19 60 34 91 44 91 8 0 54 -12 103 -26 153 -47 200 -113 177 -247 -13 -74 -26 -112 -95 -277 -86 -203 -100 -257 -100 -390 0 -108 2 -119 32 -182 57 -121 146 -186 269 -196 130 -10 248 43 396 176 l38 34 48 -43 c162 -145 425 -180 682 -91 352 123 679 455 1018 1035 95 163 75 169 180 -58 149 -323 174 -494 92 -654 -55 -108 -144 -168 -268 -178 -114 -9 -189 24 -212 93 -25 74 17 154 80 154 49 0 69 -16 76 -60 6 -36 9 -40 36 -40 43 0 98 57 98 101 0 116 -159 178 -288 113 -88 -44 -152 -143 -152 -234 0 -56 30 -128 75 -177 79 -88 211 -130 375 -119 349 23 573 231 596 551 12 167 -40 329 -168 532 -208 329 -222 358 -222 478 -1 89 11 120 66 173 92 91 307 75 376 -28 46 -68 21 -188 -53 -260 -40 -39 -42 -50 -17 -73 55 -50 174 24 230 143 21 44 27 70 27 130 0 135 -63 216 -203 261 -87 28 -253 35 -334 14z m-1423 -529 c43 -18 55 -42 55 -110 0 -116 -77 -239 -207 -332 -70 -50 -185 -105 -250 -119 l-31 -6 9 43 c19 84 71 224 112 303 54 101 154 208 212 223 55 14 61 14 100 -2z" fill="#ff6000"/>
<path d="M7843 3323 c-107 -242 -401 -400 -895 -483 -156 -26 -376 -48 -571 -56 l-149 -7 30 49 c45 74 64 139 65 229 1 121 -38 180 -118 180 -77 0 -95 -29 -140 -225 -32 -137 -93 -227 -166 -241 -64 -12 -179 -11 -179 2 0 6 20 95 45 198 25 103 45 196 45 206 0 16 -11 17 -172 13 -140 -4 -173 -7 -181 -20 -6 -8 -33 -107 -61 -219 l-51 -203 -90 -31 c-111 -37 -150 -61 -214 -131 -63 -68 -82 -121 -57 -159 l17 -26 32 21 c86 58 257 121 257 96 0 -11 -74 -331 -142 -619 -8 -31 -19 -52 -32 -59 -12 -6 -43 -28 -71 -49 -53 -39 -174 -103 -182 -96 -2 3 1 35 8 72 18 103 7 323 -21 410 -66 208 -207 328 -411 350 -126 13 -269 -33 -365 -118 -27 -24 -68 -49 -91 -55 -23 -7 -70 -33 -104 -59 -131 -99 -234 -273 -291 -496 -28 -108 -31 -338 -5 -439 50 -199 186 -359 352 -413 46 -15 87 -20 175 -20 104 1 122 4 191 31 197 79 331 213 464 463 l50 94 76 32 c42 18 104 48 137 69 33 20 62 36 64 36 3 0 -2 -42 -9 -92 -20 -131 -13 -324 15 -401 26 -71 82 -150 136 -188 133 -97 371 -89 556 18 186 109 421 443 437 624 5 48 2 60 -16 78 -23 23 -73 28 -89 9 -6 -7 -22 -44 -36 -81 -61 -162 -176 -343 -272 -425 -75 -64 -146 -95 -224 -96 -86 -1 -137 24 -168 85 -22 41 -23 52 -19 164 4 78 16 169 35 260 27 125 205 883 218 928 5 17 37 18 662 15 494 -2 687 0 777 10 275 31 418 67 585 149 96 48 127 69 187 129 146 146 198 334 131 472 -22 46 -68 82 -104 82 -16 0 -28 -15 -51 -67z m-3367 -982 c124 -56 178 -240 140 -476 -19 -113 -45 -213 -58 -221 -14 -9 -120 17 -175 42 -68 32 -156 127 -177 191 -55 167 -7 399 93 453 64 34 119 37 177 11z m-450 -577 c81 -131 236 -230 413 -265 60 -11 62 -13 56 -38 -21 -84 -173 -264 -261 -309 -134 -68 -254 -23 -320 120 -28 61 -29 68 -29 213 1 152 20 270 63 378 l15 38 22 -53 c12 -29 30 -67 41 -84z" fill="#ff6000"/>
<path d="M4876 3243 l-39 -4 6 -196 c4 -136 10 -199 19 -210 18 -22 144 -12 201 16 139 68 142 306 4 377 -30 16 -128 25 -191 17z m169 -107 c14 -14 26 -41 30 -70 13 -83 -27 -146 -101 -161 -27 -5 -32 -3 -37 17 -5 19 -10 178 -8 226 1 8 17 12 46 12 35 0 52 -6 70 -24z" fill="#ff6000"/>
<path d="M4647 3233 c-4 -3 -7 -61 -8 -127 0 -82 -3 -116 -10 -106 -5 8 -28 47 -51 85 -69 118 -96 147 -132 143 l-31 -3 3 -195 c2 -117 8 -200 14 -207 6 -7 21 -13 33 -13 41 0 48 21 40 132 -4 67 -4 99 3 93 5 -5 37 -53 72 -105 34 -52 70 -101 78 -107 24 -20 62 -16 70 6 11 30 -6 382 -19 398 -12 14 -51 18 -62 6z" fill="#ff6000"/>
<path d="M4121 3178 c-45 -109 -124 -355 -118 -371 4 -11 17 -17 37 -17 28 0 34 5 47 40 l16 40 67 0 c66 0 66 0 83 -35 11 -22 24 -35 36 -35 31 0 51 11 51 29 0 21 -126 360 -141 377 -6 8 -22 14 -36 14 -18 0 -28 -9 -42 -42z m75 -184 l12 -42 -34 -4 c-20 -2 -37 -1 -40 4 -3 4 3 33 12 63 20 61 26 59 50 -21z" fill="#ff6000"/>
<path d="M3543 3154 c-88 -19 -158 -57 -231 -127 -119 -115 -157 -201 -227 -512 -57 -255 -123 -527 -131 -534 -3 -3 -112 -6 -242 -7 -145 -2 -269 -8 -320 -16 -46 -8 -84 -12 -86 -9 -1 4 26 116 61 251 76 297 231 888 239 913 5 15 -5 17 -113 17 -339 0 -718 -34 -965 -86 -287 -60 -525 -179 -675 -337 -113 -119 -166 -235 -165 -361 1 -73 12 -112 44 -160 47 -69 120 -106 208 -106 70 0 78 14 55 101 -13 53 -16 93 -13 172 6 118 31 187 94 256 73 82 242 162 428 202 216 48 489 65 520 33 9 -8 16 -20 16 -25 0 -18 -246 -975 -255 -988 -2 -5 -44 -28 -92 -52 -135 -66 -271 -213 -261 -282 5 -34 41 -32 111 7 81 46 177 80 177 63 0 -22 -151 -551 -196 -687 -24 -74 -72 -191 -105 -258 -50 -103 -71 -135 -127 -190 -118 -118 -262 -168 -417 -144 -181 28 -298 130 -359 312 -48 144 -45 318 9 472 30 87 56 129 120 197 73 78 132 105 226 106 66 0 81 -3 117 -28 58 -38 82 -89 82 -174 0 -77 -33 -162 -89 -225 -33 -38 -39 -60 -18 -75 69 -55 219 22 307 159 54 83 73 164 68 284 -3 85 -8 108 -35 166 -42 90 -109 160 -192 201 -64 31 -69 32 -191 32 -116 -1 -131 -3 -209 -33 -319 -121 -514 -438 -513 -832 0 -256 71 -443 230 -607 141 -144 330 -211 566 -200 151 7 259 33 391 97 121 58 198 115 292 214 209 220 348 532 505 1135 l43 165 55 12 c106 25 281 34 417 23 137 -11 173 -24 173 -62 0 -12 -18 -112 -39 -222 -58 -294 -66 -373 -66 -625 0 -185 3 -237 18 -290 44 -163 133 -289 245 -347 83 -44 140 -56 231 -51 143 8 260 88 319 216 57 125 22 292 -73 348 -73 42 -169 33 -220 -22 -36 -38 -36 -116 -1 -140 23 -15 27 -14 69 10 78 46 137 24 137 -51 0 -137 -194 -182 -283 -66 -44 58 -59 129 -59 269 1 256 47 480 321 1580 111 448 157 617 181 663 29 59 92 131 168 193 36 30 35 54 -5 69 -35 13 -198 9 -270 -7z" fill="#ff6000"/>
<path d="M7585 2208 c-66 -157 -113 -212 -232 -269 -112 -53 -201 -71 -358 -72 -268 0 -492 79 -703 249 -42 34 -78 61 -80 59 -9 -9 36 -73 93 -134 189 -200 525 -341 814 -341 139 0 237 21 348 75 155 76 225 180 227 337 1 63 -3 81 -20 105 -12 15 -32 29 -46 31 -21 3 -27 -4 -43 -40z" fill="#ff6000"/>
<path d="M7671 925 c-49 -56 -36 -73 26 -35 33 20 57 53 46 64 -15 15 -43 3 -72 -29z" fill="#ff6000"/>
<path d="M7417 843 c-16 -4 -17 -17 -15 -131 3 -123 4 -127 26 -130 20 -3 22 0 22 51 l0 55 41 7 c54 9 51 39 -4 43 -33 3 -37 6 -37 32 0 27 3 29 48 32 39 3 47 6 47 23 0 17 -7 20 -55 22 -30 0 -63 -1 -73 -4z" fill="#ff6000"/>
<path d="M7623 844 c-9 -4 -11 -36 -7 -122 3 -64 7 -123 9 -129 5 -14 53 -17 104 -7 21 5 31 12 31 25 0 16 -8 19 -45 19 -32 0 -45 4 -45 14 0 8 -2 21 -5 29 -4 10 6 16 37 23 61 13 65 42 6 46 -39 3 -43 6 -46 31 -3 25 0 27 30 27 39 0 74 21 64 38 -7 12 -108 16 -133 6z" fill="#ff6000"/>
<path d="M6971 831 c-44 -12 -62 -50 -62 -129 0 -82 10 -106 51 -127 33 -17 74 -12 102 13 27 23 11 34 -37 26 -53 -8 -65 8 -65 90 0 68 17 89 65 80 24 -4 34 -2 38 9 11 29 -45 52 -92 38z" fill="#ff6000"/>
<path d="M7192 813 c-12 -29 -62 -221 -62 -235 0 -19 41 -6 49 16 6 15 21 25 43 30 28 6 36 3 53 -19 19 -23 55 -35 55 -18 0 16 -73 229 -83 241 -16 21 -44 13 -55 -15z m53 -115 c6 -24 4 -28 -14 -28 -22 0 -27 22 -15 55 8 20 20 9 29 -27z" fill="#ff6000"/>
<path d="M6686 823 c-4 -4 -16 -27 -27 -52 -21 -48 -26 -47 -56 9 -11 20 -29 36 -41 38 -31 5 -28 -20 9 -86 21 -35 34 -75 38 -111 5 -48 9 -56 29 -59 20 -3 22 0 22 48 0 38 9 68 36 121 19 39 33 77 30 85 -6 15 -28 19 -40 7z" fill="#ff6000"/>
<path d="M6182 798 c-8 -8 -10 -37 -5 -98 5 -73 3 -88 -11 -103 -20 -19 -34 -21 -56 -7 -11 7 -16 35 -20 107 -5 90 -7 98 -25 98 -18 0 -20 -8 -23 -95 -2 -106 8 -137 51 -158 35 -17 100 0 122 31 16 23 19 106 7 186 -7 47 -20 59 -40 39z" fill="#ff6000"/>
<path d="M6327 803 c-3 -5 -2 -63 1 -130 l5 -123 62 0 c41 0 67 5 74 14 17 20 -10 38 -48 31 -38 -7 -38 -8 -46 118 -6 85 -9 97 -25 97 -11 0 -21 -3 -23 -7z" fill="#ff6000"/>
<path d="M5594 782 c-11 -7 -74 -215 -74 -245 0 -25 27 -21 45 7 11 16 28 25 51 28 30 4 37 1 45 -19 6 -16 17 -23 34 -23 14 0 25 3 25 8 0 4 -18 56 -39 117 -37 105 -63 143 -87 127z m34 -129 c10 -31 10 -33 -14 -33 -27 0 -29 6 -14 46 12 31 13 30 28 -13z" fill="#ff6000"/>
<path d="M5790 659 c0 -130 0 -130 23 -127 18 2 23 10 25 46 4 49 20 55 44 14 24 -41 55 -65 73 -58 14 5 13 12 -11 55 l-28 48 22 28 c29 36 28 70 -3 100 -20 21 -34 25 -85 25 l-60 0 0 -131z m117 64 c8 -20 -31 -55 -52 -46 -9 3 -15 18 -15 34 0 26 4 29 30 29 19 0 33 -6 37 -17z" fill="#ff6000"/>
<path d="M5264 765 c-9 -22 67 -235 88 -249 14 -8 22 -6 37 9 20 21 84 232 75 246 -3 5 -14 9 -24 9 -15 0 -23 -13 -35 -57 -9 -32 -21 -74 -27 -93 l-11 -34 -31 89 c-21 62 -36 91 -49 93 -9 2 -20 -4 -23 -13z" fill="#ff6000"/>
<path d="M4837 763 c-10 -10 -8 -246 2 -262 16 -24 41 -4 42 34 3 70 9 72 49 16 33 -44 60 -63 78 -52 7 4 -2 27 -29 70 -45 71 -45 85 -4 146 18 25 23 41 16 48 -17 17 -39 0 -73 -55 l-33 -53 -3 50 c-4 53 -24 80 -45 58z" fill="#ff6000"/>
<path d="M4643 750 c-40 -16 -57 -57 -57 -132 1 -88 22 -121 79 -126 60 -5 87 5 83 31 -4 23 -6 24 -50 13 -42 -10 -58 14 -58 88 0 75 13 91 64 82 44 -8 58 10 26 36 -24 19 -52 22 -87 8z" fill="#ff6000"/>
<path d="M4407 743 c-2 -5 -21 -64 -42 -132 -31 -101 -35 -125 -24 -132 23 -14 29 -11 40 21 10 26 16 30 50 30 32 0 41 -5 51 -25 11 -25 41 -34 53 -16 8 14 -73 234 -92 249 -19 14 -30 15 -36 5z m38 -135 c6 -24 4 -28 -14 -28 -22 0 -25 10 -15 48 8 27 20 19 29 -20z" fill="#ff6000"/>
<path d="M3908 734 c-15 -5 -18 -18 -18 -93 0 -49 3 -109 6 -135 l7 -46 49 0 c98 0 141 50 105 121 -9 16 -11 33 -5 48 10 29 1 65 -21 85 -18 17 -93 28 -123 20z m76 -54 c34 -12 33 -38 -1 -51 -20 -7 -28 -6 -35 3 -9 16 -10 42 -1 51 8 9 7 9 37 -3z m17 -110 c39 -21 18 -60 -32 -60 -15 0 -19 7 -19 35 0 37 14 44 51 25z" fill="#ff6000"/>
<path d="M4149 728 c-5 -54 5 -236 13 -245 12 -15 96 -17 117 -4 27 17 4 41 -39 41 l-40 0 0 94 c0 52 -3 101 -6 110 -7 19 -44 22 -45 4z" fill="#ff6000"/>
<path d="M5075 550 c-4 -6 -4 -23 0 -38 3 -17 0 -35 -9 -47 -20 -27 -20 -35 2 -35 38 0 80 79 60 113 -10 19 -43 23 -53 7z" fill="#ff6000"/>
</g>
</svg>